<svg width="33" height="25" viewBox="0 0 33 25" fill="none" xmlns="http://www.w3.org/2000/svg">
<path d="M11.9743 0.898682C11.9743 0.898682 3.90996 8.59472 0.769167 11.5911C0.505792 11.8406 0.375 12.1686 0.375 12.4966C0.375 12.8246 0.505792 13.1526 0.769167 13.402C3.90817 16.3984 11.9707 24.091 11.9707 24.091C12.2305 24.3387 12.5727 24.4617 12.9149 24.4617C13.2571 24.46 13.6011 24.3353 13.8645 24.0842C14.3894 23.5836 14.3912 22.7756 13.8716 22.2785L4.95629 13.7778H31.2795C32.0212 13.7778 32.6232 13.2038 32.6232 12.4966C32.6232 11.7893 32.0212 11.2153 31.2795 11.2153H4.95629L13.8752 2.70951C14.393 2.21581 14.3894 1.40947 13.8645 0.908932C13.6011 0.657807 13.2571 0.53139 12.9149 0.53139C12.5727 0.529681 12.234 0.652682 11.9743 0.898682Z" fill="black"/>
</svg>
