<svg width="693" height="422" viewBox="0 0 693 422" fill="none" xmlns="http://www.w3.org/2000/svg">
<g clip-path="url(#clip0_88_172)">
<path d="M130.124 410.22H119.835L118.298 367.489L130.125 367.49L130.124 410.22Z" fill="#FFB8B8"/>
<path d="M132.747 420.959L99.5737 420.958V420.506C99.5737 418.68 99.9077 416.872 100.557 415.186C101.205 413.499 102.157 411.966 103.356 410.675C104.555 409.384 105.978 408.36 107.545 407.661C109.111 406.962 110.79 406.603 112.486 406.603H112.487L132.748 406.604L132.747 420.959Z" fill="#2F2E41"/>
<path d="M188.073 410.22H198.36L199.898 367.489L188.07 367.49L188.073 410.22Z" fill="#FFB8B8"/>
<path d="M185.448 406.604L205.709 406.603H205.71C207.406 406.603 209.085 406.962 210.651 407.661C212.218 408.36 213.641 409.384 214.84 410.675C216.039 411.966 216.99 413.499 217.639 415.186C218.288 416.872 218.622 418.68 218.622 420.506V420.958L185.449 420.959L185.448 406.604Z" fill="#2F2E41"/>
<path d="M188.342 404.744C187.484 404.741 186.652 404.425 185.982 403.846C185.312 403.268 184.845 402.462 184.655 401.561L159.155 281.793C159.099 281.489 158.945 281.216 158.721 281.022C158.496 280.828 158.215 280.725 157.927 280.733H157.92C157.631 280.727 157.349 280.831 157.125 281.028C156.901 281.225 156.748 281.5 156.695 281.807L133.278 400.767C133.095 401.677 132.629 402.492 131.958 403.078C131.286 403.664 130.448 403.986 129.583 403.989H118.428C117.914 403.989 117.405 403.876 116.932 403.656C116.459 403.437 116.034 403.116 115.681 402.712C115.328 402.309 115.055 401.832 114.879 401.311C114.703 400.79 114.628 400.236 114.659 399.683L122.967 248.906L126.311 247.841L126.373 247.841L192.046 248.46L206.033 399.071C206.082 399.609 206.031 400.151 205.883 400.667C205.735 401.182 205.494 401.661 205.172 402.075C204.851 402.489 204.456 402.83 204.01 403.078C203.565 403.326 203.079 403.476 202.579 403.519L188.645 404.731C188.544 404.74 188.443 404.744 188.342 404.744Z" fill="#2F2E41"/>
<path d="M161.222 109.828C172.606 109.828 181.833 99.8915 181.833 87.6339C181.833 75.3763 172.606 65.4396 161.222 65.4396C149.839 65.4396 140.611 75.3763 140.611 87.6339C140.611 99.8915 149.839 109.828 161.222 109.828Z" fill="#A0616A"/>
<path d="M148.596 265.437C144.98 265.485 141.378 264.939 137.915 263.818C134.835 262.818 131.977 261.15 129.518 258.916C127.06 256.682 125.051 253.93 123.617 250.829C123.162 249.895 123.062 248.809 123.336 247.797C125.609 239.443 136.594 196.018 129.585 161.497C128.596 156.702 128.514 151.741 129.343 146.91C130.173 142.079 131.898 137.478 134.415 133.381C136.873 129.316 140.066 125.826 143.804 123.118C147.543 120.411 151.749 118.542 156.172 117.623L156.172 117.622C157.335 117.378 158.504 117.177 159.646 117.025C164.536 116.377 169.498 116.901 174.178 118.559C178.857 120.217 183.139 122.968 186.716 126.616C190.399 130.335 193.274 134.886 195.133 139.941C196.992 144.996 197.79 150.432 197.471 155.858L192.084 248.937C192.047 249.634 191.842 250.31 191.489 250.896C191.136 251.483 190.648 251.961 190.072 252.283C183.868 255.784 165.232 265.437 148.596 265.437Z" fill="#CCCCCC"/>
<path d="M128.148 250.153C129.328 249.521 130.365 248.618 131.186 247.508C132.006 246.397 132.591 245.106 132.898 243.726C133.206 242.346 133.228 240.91 132.965 239.52C132.701 238.13 132.157 236.818 131.372 235.678L138.113 164.707H123.545L118.187 234.007C116.497 235.554 115.392 237.716 115.082 240.082C114.773 242.448 115.28 244.854 116.508 246.844C117.735 248.834 119.599 250.271 121.744 250.881C123.889 251.49 126.168 251.232 128.148 250.153Z" fill="#A0616A"/>
<path d="M139.144 131.107C141.988 131.723 144.528 133.433 146.287 135.918C148.046 138.403 148.905 141.492 148.703 144.609L146.695 175.553C146.66 176.095 146.511 176.622 146.261 177.094C146.01 177.567 145.664 177.972 145.247 178.28C144.831 178.588 144.355 178.791 143.856 178.873C143.357 178.956 142.847 178.916 142.364 178.757L118.175 170.784C117.735 170.638 117.326 170.397 116.976 170.075C116.626 169.752 116.341 169.356 116.14 168.91C115.938 168.464 115.824 167.978 115.804 167.483C115.784 166.987 115.859 166.492 116.025 166.03L125.647 139.097C126.659 136.264 128.569 133.908 131.039 132.446C133.509 130.983 136.38 130.509 139.144 131.107Z" fill="#CCCCCC"/>
<path d="M184.507 71.2968C182.366 65.5027 178.444 60.6746 173.396 57.6185C168.348 54.5623 162.479 53.4629 156.769 54.5038L163.268 60.1586C155.194 60.4514 146.695 59.8289 140.929 65.9233C142.765 65.8684 145.17 70.0956 147.006 70.0408C143.574 70.1139 140.463 72.7101 138.947 76.0258C137.543 79.4323 137.215 83.2403 138.012 86.8669C138.69 90.4898 143.86 98.9771 145.251 102.355C145.012 93.5267 161.153 72.468 169.035 74.6657C165.031 76.2656 161.556 79.1066 159.049 82.8304C164.411 79.9163 170.475 78.8478 176.421 79.7696C177.778 80.1048 179.178 80.1892 180.562 80.0193C181.41 79.8386 182.201 79.4269 182.859 78.8234C183.517 78.2198 184.021 77.4447 184.321 76.5719C184.622 75.6992 184.71 74.758 184.576 73.8383C184.443 72.9186 184.093 72.051 183.56 71.3185L184.507 71.2968Z" fill="#2F2E41"/>
<path d="M320.568 422H0.839183C0.616618 422 0.403168 421.905 0.24579 421.735C0.088413 421.566 0 421.336 0 421.096C0 420.857 0.088413 420.627 0.24579 420.457C0.403168 420.288 0.616618 420.193 0.839183 420.193H320.568C320.79 420.193 321.004 420.288 321.161 420.457C321.319 420.627 321.407 420.857 321.407 421.096C321.407 421.336 321.319 421.566 321.161 421.735C321.004 421.905 320.79 422 320.568 422Z" fill="#3F3D56"/>
<path d="M687.126 26.2056H682.091V27.1092H687.126V26.2056Z" fill="#E6E6E6"/>
<path d="M671.919 27.1092H661.747V26.2056H671.919V27.1092ZM651.575 27.1092H641.403V26.2056H651.575L651.575 27.1092ZM631.231 27.1092H621.059V26.2056H631.231V27.1092ZM610.887 27.1092H600.715V26.2056H610.887V27.1092ZM590.543 27.1092H580.372V26.2056H590.543V27.1092ZM570.199 27.1092H560.028V26.2056H570.199V27.1092ZM549.856 27.1092H539.684V26.2056H549.856V27.1092ZM529.512 27.1092H519.34V26.2056H529.512V27.1092ZM509.168 27.1092H498.996V26.2056H509.168V27.1092ZM488.824 27.1092H478.652V26.2056H488.824V27.1092ZM468.48 27.1092H458.308V26.2056H468.48V27.1092ZM448.136 27.1092H437.965V26.2056H448.136V27.1092ZM427.793 27.1092H417.621V26.2056H427.793V27.1092ZM407.449 27.1092H397.277V26.2056H407.449V27.1092ZM387.105 27.1092H376.933V26.2056H387.105V27.1092ZM366.761 27.1092H356.589V26.2056H366.761V27.1092Z" fill="#E6E6E6"/>
<path d="M346.417 26.2056H341.382V27.1092H346.417V26.2056Z" fill="#E6E6E6"/>
<path d="M521.807 110.244H516.772V111.148H521.807V110.244Z" fill="#E6E6E6"/>
<path d="M506.751 111.148H496.73V110.244H506.751V111.148ZM486.709 111.148H476.688V110.244H486.709V111.148ZM466.667 111.148H456.646V110.244H466.667V111.148ZM446.626 111.148H436.605V110.244H446.626V111.148ZM426.584 111.148H416.563V110.244H426.584V111.148ZM406.542 111.148H396.521V110.244H406.542V111.148ZM386.5 111.148H376.48V110.244H386.501L386.5 111.148ZM366.459 111.148H356.438V110.244H366.459V111.148Z" fill="#E6E6E6"/>
<path d="M346.417 110.244H341.382V111.148H346.417V110.244Z" fill="#E6E6E6"/>
<path d="M423.622 150.004H418.587V150.908H423.622V150.004Z" fill="#E6E6E6"/>
<path d="M408.277 150.908H397.967V150.004H408.277V150.908ZM387.657 150.908H377.347V150.004H387.657V150.908ZM367.037 150.908H356.728V150.004H367.037V150.908Z" fill="#E6E6E6"/>
<path d="M346.417 150.004H341.382V150.908H346.417V150.004Z" fill="#E6E6E6"/>
<path d="M687.268 36.1547V190.912C687.26 198.698 684.384 206.163 679.271 211.669C674.158 217.174 667.226 220.271 659.995 220.28H367.959C364.131 220.283 360.345 219.415 356.85 217.734C353.354 216.052 350.228 213.594 347.676 210.521V209.139C350.133 212.321 353.207 214.887 356.681 216.655C360.156 218.424 363.948 219.353 367.792 219.377L418.302 164.987C418.964 164.273 419.75 163.707 420.616 163.321C421.481 162.935 422.409 162.737 423.345 162.737C424.282 162.737 425.21 162.935 426.075 163.321C426.94 163.707 427.727 164.273 428.389 164.987L455.234 193.885L518.165 126.13C518.827 125.417 519.613 124.851 520.479 124.465C521.344 124.079 522.271 123.88 523.208 123.88C524.145 123.88 525.072 124.079 525.938 124.465C526.803 124.851 527.589 125.417 528.252 126.13L565.167 165.872L685.599 36.1998L686.429 36.1727L686.815 36.1637L687.268 36.1547Z" fill="#6C63FF"/>
<path d="M660.272 220.488H368.236C361.005 220.479 354.073 217.382 348.96 211.877C343.847 206.371 340.971 198.906 340.963 191.12V29.3683C340.971 21.5821 343.847 14.1172 348.96 8.61151C354.073 3.10579 361.005 0.00881343 368.236 0H660.272C667.503 0.00881105 674.435 3.10579 679.548 8.61151C684.661 14.1172 687.537 21.5821 687.545 29.3683V191.12C687.537 198.906 684.661 206.371 679.548 211.877C674.435 217.382 667.503 220.479 660.272 220.488ZM368.236 0.90364C361.228 0.912179 354.509 3.91387 349.553 9.25018C344.597 14.5865 341.81 21.8216 341.802 29.3683V191.12C341.81 198.667 344.597 205.902 349.553 211.238C354.509 216.574 361.228 219.576 368.236 219.585H660.272C667.28 219.576 673.999 216.574 678.955 211.238C683.911 205.902 686.698 198.667 686.706 191.12V29.3683C686.698 21.8216 683.911 14.5865 678.955 9.25018C673.999 3.91387 667.28 0.912176 660.272 0.90364H368.236Z" fill="#3F3D56"/>
<path d="M368.533 220.356L367.94 219.717L418.579 165.188C419.917 163.75 421.731 162.942 423.622 162.942C425.513 162.942 427.327 163.75 428.666 165.188L455.511 194.096L518.441 126.332C519.78 124.893 521.594 124.086 523.485 124.086C525.376 124.086 527.19 124.893 528.529 126.332L565.444 166.083L686.829 35.3744L687.422 36.0133L565.444 167.361L527.935 126.971C527.351 126.341 526.657 125.842 525.894 125.502C525.13 125.161 524.312 124.986 523.485 124.986C522.659 124.986 521.84 125.161 521.077 125.502C520.313 125.842 519.619 126.341 519.035 126.971L455.511 195.373L428.073 165.827C426.891 164.558 425.291 163.846 423.622 163.846C421.954 163.846 420.353 164.558 419.172 165.827L368.533 220.356Z" fill="#3F3D56"/>
<path d="M423.622 156.782C426.866 156.782 429.496 153.95 429.496 150.456C429.496 146.963 426.866 144.131 423.622 144.131C420.378 144.131 417.748 146.963 417.748 150.456C417.748 153.95 420.378 156.782 423.622 156.782Z" fill="#3F3D56"/>
<path d="M521.807 117.021C525.051 117.021 527.681 114.189 527.681 110.696C527.681 107.202 525.051 104.37 521.807 104.37C518.562 104.37 515.932 107.202 515.932 110.696C515.932 114.189 518.562 117.021 521.807 117.021Z" fill="#3F3D56"/>
<path d="M687.126 32.9829C690.37 32.9829 693 30.1509 693 26.6574C693 23.1639 690.37 20.3319 687.126 20.3319C683.881 20.3319 681.251 23.1639 681.251 26.6574C681.251 30.1509 683.881 32.9829 687.126 32.9829Z" fill="#3F3D56"/>
<path d="M143.894 263.963C156.078 263.963 165.956 248.825 165.956 230.152C165.956 211.479 156.078 196.341 143.894 196.341C131.709 196.341 121.832 211.479 121.832 230.152C121.832 248.825 131.709 263.963 143.894 263.963Z" fill="#3F3D56"/>
<path opacity="0.1" d="M143.894 263.963C156.078 263.963 165.956 248.825 165.956 230.152C165.956 211.479 156.078 196.341 143.894 196.341C131.709 196.341 121.832 211.479 121.832 230.152C121.832 248.825 131.709 263.963 143.894 263.963Z" fill="black"/>
<path d="M146.868 263.963C159.053 263.963 168.93 248.825 168.93 230.152C168.93 211.479 159.053 196.341 146.868 196.341C134.684 196.341 124.807 211.479 124.807 230.152C124.807 248.825 134.684 263.963 146.868 263.963Z" fill="#3F3D56"/>
<path opacity="0.1" d="M146.868 259.151C157.319 259.151 165.79 246.167 165.79 230.152C165.79 214.136 157.319 201.153 146.868 201.153C136.418 201.153 127.946 214.136 127.946 230.152C127.946 246.167 136.418 259.151 146.868 259.151Z" fill="black"/>
<path d="M146.704 244.12V240.716C145.191 240.702 143.719 240.184 142.489 239.233L143.15 236.975C144.296 237.9 145.686 238.407 147.118 238.424C147.539 238.46 147.962 238.401 148.361 238.251C148.76 238.101 149.125 237.863 149.434 237.552C149.742 237.241 149.987 236.865 150.153 236.446C150.319 236.028 150.402 235.576 150.396 235.122C150.396 233.268 149.322 232.122 147.283 231.111C144.473 229.763 142.737 228.212 142.737 225.28C142.694 223.984 143.093 222.716 143.86 221.716C144.627 220.716 145.707 220.053 146.897 219.854V216.45H148.605V219.719C149.879 219.738 151.122 220.147 152.187 220.899L151.498 223.123C150.476 222.37 149.265 221.97 148.027 221.977C147.653 221.935 147.275 221.979 146.919 222.106C146.562 222.234 146.234 222.441 145.958 222.716C145.682 222.99 145.463 223.324 145.316 223.697C145.169 224.069 145.098 224.471 145.106 224.876C145.106 226.628 146.126 227.504 148.523 228.718C151.361 230.133 152.793 231.886 152.793 234.886C152.831 236.245 152.412 237.574 151.612 238.627C150.812 239.68 149.685 240.386 148.44 240.615V244.12L146.704 244.12Z" fill="#6C63FF"/>
<path d="M158.678 210.783C159.14 210.84 159.596 210.936 160.043 211.071L191.635 181.898L189.789 171.194L204.426 166.082L209.405 184.689C209.808 186.192 209.746 187.795 209.23 189.257C208.715 190.72 207.772 191.963 206.544 192.799L166.534 220.062C166.563 221.988 166.046 223.878 165.052 225.48C164.059 227.082 162.636 228.32 160.974 229.03C159.311 229.74 157.486 229.888 155.743 229.455C154.001 229.021 152.422 228.027 151.216 226.603C150.011 225.179 149.237 223.395 148.997 221.486C148.757 219.577 149.062 217.635 149.872 215.917C150.682 214.2 151.959 212.789 153.532 211.871C155.105 210.954 156.9 210.574 158.678 210.783Z" fill="#A0616A"/>
<path d="M185.746 132.222C188.587 131.584 191.546 132.083 194.07 133.624C196.595 135.165 198.511 137.643 199.462 140.595L208.904 169.9C209.07 170.414 209.126 170.961 209.067 171.502C209.009 172.042 208.838 172.561 208.568 173.02C208.297 173.48 207.934 173.867 207.505 174.154C207.076 174.442 206.593 174.621 206.09 174.679L180.937 177.578C180.479 177.631 180.016 177.582 179.576 177.433C179.137 177.285 178.73 177.041 178.382 176.716C178.034 176.391 177.752 175.993 177.553 175.546C177.354 175.098 177.242 174.612 177.225 174.116L176.249 145.278C176.146 142.245 177.043 139.27 178.781 136.88C180.52 134.491 182.987 132.841 185.746 132.222Z" fill="#CCCCCC"/>
</g>
<defs>
<clipPath id="clip0_88_172">
<rect width="693" height="422" fill="white"/>
</clipPath>
</defs>
</svg>
